<svg xmlns="http://www.w3.org/2000/svg" xml:space="preserve" width="594" height="451" style="shape-rendering:geometricPrecision;text-rendering:geometricPrecision;image-rendering:optimizeQuality;fill-rule:evenodd;clip-rule:evenodd" viewBox="0 0 16.951 12.864"><defs><style>.fil0{fill:#000}</style></defs><g id="Layer_x0020_1"><path d="M8.57 0c3.773.054 6.83 3.531 8.381 6.449 0 0-.508 1.032-1.019 1.747q-.372.52-.782 1.009-.292.348-.606.677c-1.869 1.962-4.553 3.427-7.387 2.858C4.009 12.108 1.544 9.351 0 6.449c0 0 .445-1.057.96-1.771a16 16 0 0 1 1.329-1.611C3.94 1.328 6.059-.012 8.57 0m-.013 1.427C6.455 1.42 4.707 2.593 3.324 4.05a14 14 0 0 0-1.206 1.463c-.194.269-.377.644-.518.924 1.346 2.308 3.314 4.397 5.838 4.904 2.342.47 4.528-.821 6.072-2.443q.283-.298.547-.612.375-.446.714-.921c.199-.277.408-.63.566-.916-1.407-2.375-3.8-4.975-6.78-5.022" class="fil0"/><path d="M8.443 3.576a2.86 2.86 0 0 1 2.861 2.861 2.86 2.86 0 0 1-2.861 2.861 2.86 2.86 0 0 1-2.861-2.861 2.86 2.86 0 0 1 2.861-2.861m0 1.431a1.431 1.431 0 1 1 0 2.862 1.431 1.431 0 0 1 0-2.862" class="fil0"/></g></svg>