<svg xmlns="http://www.w3.org/2000/svg" xml:space="preserve" width="599" height="537" style="shape-rendering:geometricPrecision;text-rendering:geometricPrecision;image-rendering:optimizeQuality;fill-rule:evenodd;clip-rule:evenodd" viewBox="0 0 24.04 21.557"><defs><style>.fil0{fill:#000}</style></defs><g id="Layer_x0020_1"><path d="M2.796 0 1.242 1.554l20.002 20.003 1.555-1.555z" class="fil0"/><path d="m4.526 4.838 1.463 1.463c-1.602 1.364-2.877 3.061-3.701 4.546l-.003.005c2.295 3.838 5.937 7.465 10.534 6.914 1.24-.148 2.398-.572 3.455-1.179l1.481 1.481c-2.061 1.323-4.424 2.023-6.984 1.677C6.154 19.121 2.38 15.334 0 10.887c1.117-2.248 2.646-4.398 4.526-6.049M7.853 2.67a10.6 10.6 0 0 1 4.18-.938c.082 0 1.066.046 1.511.12q.421.068.833.175c4.379 1.141 7.624 5.046 9.663 8.86-.856 1.728-1.976 3.212-3.313 4.656l-1.419-1.418c.988-1.064 1.818-2.089 2.452-3.238 0 0-.645-1.185-1.128-1.828a19 19 0 0 0-.981-1.202 33 33 0 0 0-1.574-1.558c-1.68-1.445-3.653-2.578-6.02-2.559a8 8 0 0 0-2.634.499z" style="fill:#000;fill-rule:nonzero"/><path d="m8.508 8.821 1.204 1.204a2.43 2.43 0 0 0 3.069 3.068l1.204 1.204a4.026 4.026 0 0 1-5.477-5.476m3.438-2.058.074-.001a4.026 4.026 0 0 1 4.024 4.023l-.001.075z" class="fil0"/></g></svg>